PathFileType	4	(X/Y/Z)	c:/Users/goper/Files/vsCode/490R/osim_files/C12/C12_Static.trc
DataRate	CameraRate	NumFrames	NumMarkers	Units                	OrigDataRate	OrigDataStartFrame	OrigNumFrames
120.00	120.00	6	36	mm	120.0	711	812
                Frame#	Time	LPSIS			LASIS			LTH1			LTH2			LTH3			LTH4			LLFE			LMFE			LSH1			LSH2			LSH3			LSH4			LLMAL			LMMAL			LCAL			LMTP5			LTOE			LMTP1			RPSIS			RASIS			RTH1			RTH2			RTH3			RTH4			RLFE			RMFE			RSH1			RSH2			RSH3			RSH4			RLMAL			RMMAL			RCAL			RMTP1			RTOE			RMTP5		
		X1	Y1	Z1	X2	Y2	Z2	X3	Y3	Z3	X4	Y4	Z4	X5	Y5	Z5	X6	Y6	Z6	X7	Y7	Z7	X8	Y8	Z8	X9	Y9	Z9	X10	Y10	Z10	X11	Y11	Z11	X12	Y12	Z12	X13	Y13	Z13	X14	Y14	Z14	X15	Y15	Z15	X16	Y16	Z16	X17	Y17	Z17	X18	Y18	Z18	X19	Y19	Z19	X20	Y20	Z20	X21	Y21	Z21	X22	Y22	Z22	X23	Y23	Z23	X24	Y24	Z24	X25	Y25	Z25	X26	Y26	Z26	X27	Y27	Z27	X28	Y28	Z28	X29	Y29	Z29	X30	Y30	Z30	X31	Y31	Z31	X32	Y32	Z32	X33	Y33	Z33	X34	Y34	Z34	X35	Y35	Z35	X36	Y36	Z36

711	5.91667	-344.88751	1063.49622	433.06061	-166.34647	1031.16809	368.48224	-295.85480	762.79340	303.36914	-295.06424	718.25989	301.54108	-234.55727	760.73450	293.21176	-241.85939	715.99146	292.80234	-283.74011	534.97052	320.64816	-271.24432	513.41803	444.10864	-350.71838	446.56601	296.76660	-347.66983	400.48679	282.92819	-290.06339	445.63809	295.32205	-295.95847	399.34500	285.35019	-311.82767	102.99632	285.20877	-290.23035	103.18751	360.83734	-366.84592	72.59499	326.26892	-180.85324	40.08992	239.27171	-122.01688	70.25371	301.06403	-146.98222	41.70360	346.19452	-353.69824	1061.64624	543.13074	-169.52289	1025.06384	630.41034	-287.17548	763.17224	699.79773	-285.53439	717.42596	695.32635	-223.98296	758.33801	698.80133	-233.14282	711.14465	695.74377	-300.65173	536.58856	672.90820	-288.58752	520.51123	540.27277	-370.07251	442.52444	697.30121	-367.04944	400.37943	708.77069	-307.50867	438.92807	698.28888	-315.36737	398.32822	711.13373	-331.21286	102.49732	701.52094	-307.10785	112.99689	621.89233	-395.71478	63.68385	658.17151	-178.15280	47.36894	632.54022	-140.33998	67.21561	668.52509	-178.31488	41.04973	739.55530
712	5.92500	-344.89056	1063.48401	433.06522	-166.35852	1031.24622	368.44876	-295.84625	762.77539	303.35223	-294.21252	719.41559	300.33075	-234.57082	760.71729	293.19910	-241.68752	716.18042	292.78479	-283.75882	534.96838	320.64578	-271.25266	513.42316	444.10757	-350.73773	446.55167	296.75430	-347.65717	400.49506	282.92480	-290.10263	445.61768	295.31628	-295.99542	399.32330	285.35132	-311.85019	102.99657	285.20908	-290.27591	103.25959	360.82468	-366.90894	72.84687	326.13684	-180.99921	39.88502	239.42882	-122.04058	70.31178	301.01648	-146.97116	41.77961	346.16284	-353.71658	1061.63550	543.14740	-169.55957	1025.11401	630.40918	-287.31958	763.23285	699.76245	-285.63766	717.52106	695.29761	-224.04478	758.40894	698.77032	-233.18509	711.24097	695.71246	-300.71671	536.65845	672.87756	-288.64618	520.49310	540.27722	-370.13712	442.55508	697.28027	-367.14810	400.42700	708.73566	-307.52249	439.00180	698.24048	-315.37756	398.37280	711.11566	-331.26685	102.56903	701.49359	-307.12640	112.98846	621.88757	-395.71982	63.73772	658.11432	-178.18132	47.40669	632.48260	-140.32976	67.27954	668.49493	-178.32196	41.11465	739.53784
713	5.93333	-344.93213	1063.47827	433.06540	-166.39565	1031.25549	368.45804	-295.87195	762.74951	303.37189	-295.09073	718.25531	301.54645	-234.60741	760.73840	293.18738	-241.87431	715.99677	292.79346	-283.80209	534.93689	320.67337	-271.27222	513.44922	444.09427	-350.75974	446.55008	296.76575	-347.67422	400.49463	282.93564	-290.12100	445.63446	295.31155	-295.97266	399.35168	285.33163	-311.85611	102.99792	285.21448	-290.31149	103.27709	360.82397	-366.91089	72.77534	326.16824	-181.01039	39.88568	239.43561	-122.03930	70.33813	301.01218	-146.98358	41.78391	346.13519	-353.74051	1061.62854	543.12207	-169.61470	1025.13171	630.39758	-287.37756	763.25146	699.76385	-285.71793	717.52454	695.29028	-224.08679	758.41815	698.76031	-233.25073	711.27167	695.69232	-300.77847	536.67102	672.87396	-288.67978	520.48267	540.28558	-370.17731	442.56406	697.27216	-367.20575	400.45370	708.72595	-307.57462	439.02426	698.23743	-315.43497	398.38742	711.11328	-331.30392	102.57766	701.48456	-307.13507	112.99935	621.88470	-395.73770	63.74006	658.11945	-178.19112	47.43576	632.48206	-140.32930	67.29156	668.48096	-178.34509	41.10833	739.53302
714	5.94167	-344.96790	1063.49792	433.06488	-166.45317	1031.16406	368.53128	-295.89899	762.74921	303.37012	-295.10715	718.26074	301.53317	-234.59433	760.74518	293.18457	-241.88338	715.98889	292.81033	-283.80298	534.93439	320.68445	-271.27118	513.46039	444.08102	-350.76541	446.56320	296.76453	-347.69052	400.50284	282.92474	-290.11395	445.63562	295.31317	-295.95477	399.38144	285.33408	-311.86462	103.01338	285.21280	-290.32404	103.18905	360.85876	-366.95673	72.52222	326.40506	-180.92722	40.05068	239.31046	-122.06544	70.24678	301.08710	-147.04939	41.69850	346.21063	-353.84070	1061.65283	543.09015	-169.69719	1025.06335	630.46161	-287.36795	763.15308	699.82660	-285.74335	717.39716	695.34802	-224.23015	758.30231	698.85278	-233.32698	711.15686	695.75098	-300.82974	536.56433	672.91364	-288.71008	520.48840	540.29688	-370.19952	442.51337	697.31378	-367.20572	400.39072	708.78082	-307.62900	438.96964	698.30573	-315.48810	398.34308	711.14392	-331.28268	102.49236	701.55750	-307.13977	113.00542	621.89917	-395.76242	63.66785	658.20117	-178.17926	47.36504	632.55914	-140.35559	67.24323	668.53424	-178.37729	41.03675	739.59161
715	5.95000	-344.96854	1063.49658	433.02884	-166.50479	1031.06592	368.60193	-295.95367	762.73676	303.40079	-295.12225	718.25684	301.52783	-234.57800	760.74054	293.18997	-241.89276	715.97980	292.80624	-283.81720	534.93842	320.67017	-271.26318	513.45752	444.08191	-350.77060	446.55875	296.74686	-347.68216	400.50720	282.90701	-290.12341	445.61533	295.31931	-295.94922	399.37665	285.33087	-311.86548	103.01933	285.20078	-290.35812	103.06804	360.91522	-366.94577	72.22480	326.57462	-180.97690	39.93720	239.38730	-122.08244	70.13441	301.15509	-147.14876	41.54856	346.28946	-353.84259	1061.65430	543.06158	-169.80093	1024.96655	630.53729	-287.39099	763.05402	699.88580	-285.76587	717.25940	695.39752	-224.36958	758.16827	698.95587	-233.41367	711.03979	695.80646	-300.85199	536.49335	672.95905	-288.72705	520.47968	540.30219	-370.17334	442.43954	697.35455	-367.18649	400.28287	708.84528	-307.71371	438.83032	698.40485	-315.53073	398.25909	711.19452	-331.26141	102.42500	701.59363	-307.13654	113.00412	621.90851	-395.75436	63.58462	658.27856	-178.22577	47.25737	632.64465	-140.37764	67.16779	668.59619	-178.43086	40.94818	739.64990
716	5.95833	-345.00235	1063.48560	433.00272	-166.50017	1031.04114	368.61227	-295.93967	762.75323	303.36975	-295.11343	718.25616	301.50873	-234.63751	760.72974	293.18411	-241.90082	715.97504	292.80774	-283.81924	534.93488	320.66089	-271.29611	513.44452	444.07977	-350.76736	446.55670	296.74200	-347.69101	400.49356	282.90915	-290.12085	445.61261	295.31256	-295.96143	399.36264	285.33569	-311.85928	103.00457	285.19821	-290.26852	103.03619	360.93231	-366.93164	72.19495	326.63858	-180.99649	39.87611	239.44586	-122.07620	70.11132	301.16577	-147.11118	41.52055	346.30792	-353.92007	1061.65442	543.05322	-169.84674	1024.92212	630.56732	-287.36520	763.03833	699.88354	-285.75574	717.25500	695.40399	-224.43457	758.12592	698.94214	-233.40244	711.01770	695.82916	-300.83780	536.46808	672.96252	-288.72546	520.48279	540.29950	-370.15109	442.39676	697.37347	-367.15717	400.25104	708.85687	-307.71606	438.80746	698.41736	-315.55276	398.23984	711.20398	-331.22910	102.39001	701.61011	-307.13223	112.99517	621.90527	-395.74808	63.54910	658.29352	-178.21376	47.23586	632.65936	-140.38120	67.12748	668.60913	-178.39143	40.92249	739.64752
